<?xml version="1.0" encoding="UTF-8"?>
<svg id="Layer_2" data-name="Layer 2" xmlns="http://www.w3.org/2000/svg" viewBox="0 0 136.65 119.09">
  <defs>
    <style>
      .cls-1 {
        fill: #ffffff;
      }

      .cls-1, .cls-2, .cls-3, .cls-4 {
        stroke-width: 0px;
      }

      .cls-2 {
        fill: #ffffff;
      }

      .cls-3 {
        fill: #ffffff;
      }

      .cls-4 {
        fill: #ffffff;
      }
    </style>
  </defs>
  <g id="Layer_1-2" data-name="Layer 1">
    <g>
      <path class="cls-1" d="M66.7,57.04c0-.77-.07-1.55-.11-2.32-.23-.05-.45-.1-.68-.15-.47.97-1.06,1.9-1.38,2.91-.6,1.87-.93,3.83-1.56,5.69-1.98,5.88-5.6,10.14-12.11,10.83-4.88.51-9.81.8-14.71.72-6.61-.11-12.12-2.51-15.21-8.87-.05-.1-.26-.11-.5-.2-2.46,1.96-5.27,3.17-8.55,2.82-2.23-.24-4.13-1.13-5.07-3.29-.25-.57.1-1.39.17-2.09.59.3,1.18.6,1.75.91,1.27.69,2.55,1.98,3.8,1.96,1.95-.04,3.9-.92,5.82-1.55,1.49-.49,1.8-1.44,1.25-3-.57-1.62-.85-3.39-1.02-5.11-.15-1.55-.41-2.62-2.34-2.48-.51.04-1.48-.61-1.54-1.05-.51-3.46-1.51-6.99.67-10.27-.99-.89-1.99-1.79-2.98-2.68-.88-.92-1.75-1.84-2.63-2.77-.18-.29-.37-.58-.55-.87-1.44,1.25-3.16,2.29-4.26,3.78-3.72,5.06-2.36,9.43,3.71,11.67-.34.63-.58,1.66-1,1.74-3.03.59-4.81-1.49-6.74-3.74-1.59,5.67-1.22,10.78,1.83,15.5,1.26,1.95,3.01,3.59,4.41,5.47.35.47.23,1.29.32,1.95-.71-.07-1.63.11-2.09-.26-1.31-1.07-2.42-2.38-3.74-3.72-1.46,6.72,2,13.34,8.23,16.06,1.08.47,1.7.81,1.56,2.24-.88,9.05,4.24,15.27,13.25,16.11,1.47.14,2.2.61,2.41,2.05.08.59.37,1.15.62,1.7,2.51,5.48,8.77,9.05,13.81,7.76-.14-.42-.45-.86-.39-1.25.12-.86.42-1.7.64-2.54.54.5,1.12.97,1.61,1.52,1.55,1.69,2.79,3.87,4.66,5.03,4.69,2.93,11.1,1.85,15.59-2.09,2.04-1.79,3.12-3.85,3.1-6.72-.1-17.13-.04-34.27-.04-51.4ZM12.01,78.08c-.06.04-.12.08-.18.11-.45.23-.96.33-1.47.28-.07-.44-.15-.88-.13-1.32,0-.15.02-.29.08-.43.17-.37.6-.53.92-.74.93-.64,1.91-1.22,2.88-1.81.18-.11.36-.22.56-.27.31-.08.64,0,.95.07.29,0,.64.15.92.21.34.08.68.16,1.03.24.63.14,1.22.3,1.83.5,1.21.4,2.37.93,3.44,1.61.39.25.77.52,1.14.8.18.14.37.29.55.44.09.07.4.44.5.44.4.36.17,1.41.24,2.14-.58-.09-1.24-.05-1.73-.31-1.72-.92-3.33-2.07-5.09-2.9-1.15-.54-2.44-.89-3.71-.64-.64.13-1.24.4-1.77.77-.35.24-.61.57-.95.8ZM40.3,94.95c-1.16.48-2.44.66-3.23.86-1.18-.12-1.95,0-2.51-.28-2.79-1.42-5.49-1.09-8.4-.27-1.73.49-3.8.33-5.58-.09-3.22-.76-4.77-4.31-3.35-7.19.28-.57,1.05-.9,1.59-1.34.18.62.61,1.28.51,1.86-.51,3.14.59,4.71,3.8,4.58,1.99-.08,3.93-.91,5.92-1.26.94-.17,2.09-.3,2.88.08,2.48,1.2,4.91,1.89,7.65.98.45-.15,1.1.32,1.66.5-.31.55-.49,1.39-.95,1.58ZM45.4,101.93c-.18.23-.42.41-.69.57s-.54.31-.79.49h0c-.13-.31-.35-.63-.51-.95-.17-.32-.29-.62-.25-.91.66-4.46,8.23-8.83,12.49-7.26.48.18.87.61,1.94,1.4-1.35.43-2.04.85-2.7.82-2.52-.12-4.89.35-6.74,2.07-1.12,1.05-1.79,2.55-2.76,3.78ZM54.93,113.36c-2.94-.06-6.63-2.55-7.59-5.32-.22-.63.19-1.48.31-2.23.61.35,1.32.6,1.82,1.07,1.08,1.02,1.88,2.43,3.1,3.18,2.53,1.57,5.32.5,6.78-2.34.34-.67.46-1.47.88-2.07.27-.38,1.04-.8,1.36-.67.42.17.87.89.85,1.36-.11,3.35-4.17,7.09-7.52,7.02ZM62.73,84.75c-.52.02-1.36-.13-1.52-.48-1.09-2.25-2.54-3.92-5.25-4.03-2.13-.09-4.26.38-6.12,1.44-.64.37-1.21.81-1.81,1.24s-.95,1.09-1.57,1.48c-.37.23-.81.34-1.25.35-.11,0-.23,0-.33-.05-.12-.06-.2-.16-.26-.28-.18-.32-.24-.7-.16-1.06.1-.48.46-.82.77-1.17.28-.33.58-.64.9-.94.64-.6,1.34-1.12,2.09-1.58,1.48-.91,3.15-1.54,4.86-1.84,1.63-.28,3.33-.26,4.92.21,1.49.44,2.85,1.28,3.85,2.48.75.9,1.18,2.06,1.79,3.15-.38.47-.63,1.05-.91,1.06Z"/>
      <path class="cls-1" d="M20.72,25.64s0,0,0,0c0,0,0,0-.01.01h.02Z"/>
      <path class="cls-3" d="M20.72,25.64c-.16,0-.32,0-.48,0,.16,0,.32,0,.48,0Z"/>
      <path class="cls-1" d="M66.56,10.17c-.05-.87-.11-1.75-.16-2.62-1.83-6.04-7.61-8.94-13.79-6.91-1.29.58-2.69.98-3.82,1.78-.96.68-1.48.62-2.32-.1-.76-.66-1.7-1.38-2.65-1.53-8.52-1.3-16.7,5.62-17.14,14.18-.03.52-.04,1.08-.38,1.48-.29.34-.76.47-1.19.59-6.05,1.57-18.97,8.46-13.81,17.21.44.75.88,1.49,1.33,2.24,2.24,1.92,4.49,3.83,6.74,5.75,1-.87,1.72-1.51,2.44-2.14,2.14-1.49,4.24-3.05,6.46-4.41.45-.28,1.36.18,2.05.3-.36.72-.54,1.69-1.12,2.09-1.28.89-2.76,1.49-4.15,2.21-.37.45-.75.91-1.42,1.73h43.12v-23.65c0-2.12,0-4.25,0-6.37l-.19-1.83ZM64.88,7.8c-.05-.14-.16-.28-.3-.41.14.13.25.26.3.41ZM44.83,4.35c-2.6,1.94-4.72,3.51-6.83,5.09,1.07-3.03,3.55-4.13,6.83-5.09ZM27.89,25.88c-4,1.98-8.96,4.56-7.1,9.56-.66,1.73-2.34,2.12-3.47,1.39-.91-.58-1.52-2.33-1.49-3.54.01-.41.04-.8.1-1.18.23-1.59.84-3.15,1.86-4.41,1.16-1.44,2.83-2.07,4.24-3.21,1.45-1.17,3.18-1.72,5.01-1.91,1.04-.11,2.19-.1,3.17.31.33.14.93.4,1.09.75.33.71-.62.79-1.25,1.14-.65.35-1.39.71-2.16,1.1ZM59.19,11.26c-.55.18-1.06.27-1.69.1-7.08-1.92-12.52,2.74-12.03,10.22.31,4.63,2.61,7.97,6.42,10.38,1.28.81,2.69,1.42,3.91,2.29.43.31.49,1.13.72,1.72-.51.17-1.08.59-1.52.48-9.18-2.21-14.6-12.43-11.06-20.82.41-.97.97-1.88,1.79-3.45-1.8,1.07-3.58,2.16-5.39,3.21s-3.13,2.14-5.26,1.75c-.28-.05-.55-.13-.78-.29-.31-.23-.71-.62-.39-1.02.12-.14.29-.23.46-.31,1.29-.62,2.59-1.22,3.84-1.92s3.19-1.25,4.15-2.21c4.1-2.12,8.37-3.61,13.08-3.02,1.61.2,4.12.45,4.47,2.36.01.07.02.15-.01.22-.04.07-.11.1-.18.13-.18.07-.35.14-.52.2ZM64.29,10.61c-.06.29-.19.55-.44.72-.64-1.95-.56-3.94-1.69-5.8s-2.93-3-4.98-3.57c-.34-.1-.69-.2-1.03-.3.34.1.69.2,1.03.3,1.99-.63,4.07.16,5.43,2.22,1.08,1.63,1.48,3.36,1.68,5.28.04.35.07.78,0,1.15Z"/>
      <path class="cls-1" d="M53.64,47.12c-1.77-.03-3.54-.04-5.31-.04s-3.5.01-5.26.02c-.26,0-.53,0-.79,0-.11,0-.65-.07-.69.05,0,.03,0,.07,0,.1s0,.07-.03.09c-.02.02-.05.02-.08.02-1.72,0-3.44-.04-5.17-.04-1.77-.02-3.53-.03-5.3,0-1.24.02-2.49.05-3.73.11-2.77.13-4.1,1.72-4.07,4.5.03,2.56.29,5.15.81,7.65,1.34,6.38,4.56,9.69,10.93,10.41,4.32.49,8.76.2,13.12-.11,4.09-.29,7.21-2.64,8.74-6.37,1.3-3.17,2.24-6.59,2.64-9.99.57-4.88-.93-6.3-5.82-6.39Z"/>
    </g>
    <path class="cls-2" d="M65.48,4.36c.12.31.23.61.35.92-.12-.31-.23-.61-.35-.92Z"/>
    <path class="cls-4" d="M63.17,7.36c.06-.76.43-1.68.13-2.25"/>
    <path class="cls-1" d="M68.91,108.61c-.02,2.87,1.06,4.92,3.1,6.72,4.48,3.95,10.89,5.02,15.59,2.09,1.87-1.17,3.11-3.34,4.66-5.03.5-.54,1.07-1.01,1.61-1.52.22.85.52,1.68.64,2.54.05.39-.25.82-.39,1.25,5.04,1.29,11.3-2.28,13.81-7.76.25-.55.54-1.12.62-1.7.2-1.44.94-1.91,2.41-2.05,9.02-.85,14.13-7.07,13.25-16.11-.14-1.43.48-1.77,1.56-2.24,6.23-2.72,10.69-9.34,9.23-16.06-1.32,1.34-3.44,2.65-4.74,3.72-.46.38-1.38.19-2.09.26.09-.66-.03-1.48.32-1.95,1.4-1.87,4.14-3.51,5.41-5.47,3.05-4.71,3.42-9.83,1.83-15.5-1.93,2.26-4.71,4.33-7.74,3.74-.42-.08-.65-1.11-1-1.74,6.06-2.24,7.43-6.6,3.71-11.67-1.1-1.5-2.82-2.54-4.26-3.78-.18.29-.37.58-.55.87-.88.92-1.75,1.84-2.63,2.77-.99.89-1.99,1.79-2.98,2.68,2.19,3.29,1.19,6.82.67,10.27-.07.44-1.04,1.09-1.54,1.05-1.94-.14-2.19.93-2.34,2.48-.17,1.73-.45,3.49-1.02,5.11-.55,1.56-.24,2.51,1.25,3,1.92.63,3.87,1.5,5.82,1.55,1.25.03,2.53-1.26,3.8-1.96.58-.32,1.17-.61,1.75-.91.07.7.42,1.53.17,2.09-.94,2.16-2.84,3.05-5.07,3.29-3.28.35-6.08-.86-8.55-2.82-.24.09-.45.11-.5.2-3.08,6.36-8.6,8.76-15.21,8.87-4.9.08-9.84-.21-14.71-.72-6.51-.68-10.12-4.95-12.11-10.83-.63-1.86-.96-3.82-1.56-5.69-.32-1.01-.91-1.94-1.38-2.91-.23.05-.45.1-.68.15-.04.77-.11,1.55-.11,2.32,0,17.13.05,34.27-.04,51.4ZM122.69,77.46c-.53-.38-1.13-.65-1.77-.77-1.27-.25-2.56.1-3.71.64-1.76.84-3.37,1.98-5.09,2.9-.49.26-1.15.21-1.73.31.06-.73-.16-1.78.24-2.14.1,0,.41-.37.5-.44.18-.15.36-.3.55-.44.37-.28.75-.55,1.14-.8,1.07-.69,2.24-1.21,3.44-1.61.61-.2,1.21-.36,1.83-.5.34-.08.68-.16,1.03-.24.28-.07.63-.21.92-.21.31-.07.64-.14.95-.07.2.05.38.16.56.27.97.59,1.94,1.17,2.88,1.81.32.22.75.37.92.74.06.13.08.28.08.43.02.44-.05.88-.13,1.32-.5.05-1.02-.05-1.47-.28-.06-.03-.12-.07-.18-.11-.35-.23-.61-.56-.95-.8ZM94.41,93.55c.56-.18,1.21-.65,1.66-.5,2.74.92,5.17.22,7.65-.98.8-.38,1.94-.25,2.88-.08,1.99.35,3.94,1.18,5.92,1.26,3.22.13,4.31-1.44,3.8-4.58-.09-.58.33-1.24.51-1.86.54.44,1.31.77,1.59,1.34,1.42,2.88-.13,6.43-3.35,7.19-1.78.42-3.85.57-5.58.09-2.92-.82-5.62-1.15-8.4.27-.56.29-1.34.16-2.51.28-.79-.19-2.07-.38-3.23-.86-.45-.19-.64-1.03-.95-1.58ZM87.49,98.33c-1.85-1.73-4.22-2.19-6.74-2.07-.66.03-1.34-.39-2.7-.82,1.07-.78,1.46-1.22,1.94-1.4,4.26-1.57,11.84,2.8,12.49,7.26.04.28-.08.59-.25.91-.17.32-.38.64-.51.95h0c-.25-.17-.53-.32-.79-.49s-.51-.34-.69-.57c-.97-1.23-1.64-2.73-2.76-3.78ZM73.2,106.52c-.02-.47.44-1.18.85-1.36.32-.13,1.09.28,1.36.67.42.6.54,1.4.88,2.07,1.47,2.84,4.25,3.91,6.78,2.34,1.22-.76,2.02-2.16,3.1-3.18.5-.47,1.2-.72,1.82-1.07.12.75.53,1.6.31,2.23-.96,2.77-4.64,5.26-7.59,5.32-3.34.07-7.41-3.67-7.52-7.02ZM72.02,83.87c.61-1.09,1.04-2.25,1.79-3.15,1-1.2,2.36-2.04,3.85-2.48,1.59-.47,3.29-.49,4.92-.21,1.72.3,3.38.93,4.86,1.84.74.46,1.45.98,2.09,1.58.32.3.62.61.9.94.31.36.67.69.77,1.17.08.36.02.74-.16,1.06-.06.11-.15.22-.26.28-.1.05-.22.05-.33.05-.44-.01-.87-.12-1.25-.35-.62-.38-.99-1.05-1.57-1.48s-1.17-.88-1.81-1.24c-1.86-1.06-3.98-1.53-6.12-1.44-2.71.11-4.16,1.78-5.25,4.03-.17.34-1.01.5-1.52.48-.28-.01-.53-.6-.91-1.06Z"/>
    <path class="cls-1" d="M114.93,25.81s0,0,0,0c0,0,0,0,.01.01h-.02Z"/>
    <path class="cls-3" d="M114.93,25.81c.16,0,.32,0,.48,0-.16,0-.32,0-.48,0Z"/>
    <path class="cls-1" d="M68.91,12.18c0,2.12,0,4.25,0,6.37v23.65h43.12c-.68-.82-1.05-1.28-1.42-1.73-1.4-.72-2.87-1.32-4.15-2.21-.58-.4-.76-1.38-1.12-2.09.7-.12,1.6-.58,2.05-.3,2.22,1.36,4.32,2.92,6.46,4.41.72.63,1.44,1.26,2.44,2.14,2.25-1.92,4.49-3.84,6.74-5.75.44-.75.88-1.49,1.33-2.24,5.16-8.75-7.76-15.64-13.81-17.21-.44-.11-.9-.24-1.19-.59-.33-.39-.35-.96-.38-1.48-.44-8.56-8.62-15.49-17.14-14.18-.95.14-1.88.87-2.65,1.53-.84.73-1.35.78-2.32.1-1.13-.8-2.54-1.2-3.82-1.78-6.18-2.02-11.96.88-13.79,6.91-.05.87-.11,1.75-.16,2.62l-.19,1.83ZM71.07,7.57c-.14.13-.25.26-.3.41.05-.14.16-.28.3-.41ZM97.66,9.62c-2.12-1.58-4.23-3.15-6.83-5.09,3.28.96,5.77,2.06,6.83,5.09ZM105.61,24.96c-.64-.35-1.58-.43-1.25-1.14.16-.35.76-.61,1.09-.75.98-.41,2.13-.42,3.17-.31,1.83.19,3.56.74,5.01,1.91,1.4,1.13,3.08,1.77,4.24,3.21,1.01,1.26,1.62,2.81,1.86,4.41.06.38.09.78.1,1.18.03,1.21-.58,2.96-1.49,3.54-1.13.73-2.81.34-3.47-1.39,1.86-5-3.1-7.58-7.1-9.56-.78-.38-1.51-.75-2.16-1.1ZM75.94,11.24c-.07-.03-.15-.06-.18-.13-.04-.07-.03-.15-.01-.22.35-1.91,2.86-2.16,4.47-2.36,4.71-.59,8.98.9,13.08,3.02.96.96,2.95,1.54,4.15,2.21s2.54,1.3,3.84,1.92c.17.08.34.16.46.31.33.4-.08.79-.39,1.02-.22.17-.5.24-.78.29-2.13.39-3.54-.77-5.26-1.75-1.81-1.04-3.59-2.14-5.39-3.21.82,1.57,1.38,2.48,1.79,3.45,3.54,8.39-1.87,18.62-11.06,20.82-.44.11-1.01-.31-1.52-.48.23-.59.29-1.41.72-1.72,1.23-.87,2.64-1.48,3.91-2.29,3.81-2.41,6.11-5.75,6.42-10.38.5-7.47-4.95-12.14-12.03-10.22-.63.17-1.15.09-1.69-.1-.17-.06-.34-.12-.52-.2ZM71.36,9.64c.2-1.92.59-3.65,1.68-5.28,1.37-2.06,3.44-2.85,5.43-2.22.34-.1.69-.2,1.03-.3-.34.1-.69.2-1.03.3-2.05.57-3.86,1.74-4.98,3.57s-1.06,3.84-1.69,5.8c-.25-.17-.38-.43-.44-.72-.08-.38-.04-.81,0-1.15Z"/>
    <path class="cls-1" d="M82.01,47.3c1.77-.03,3.54-.04,5.31-.04s3.5.01,5.26.02c.26,0,.53,0,.79,0,.11,0,.65-.07.69.05,0,.03,0,.07,0,.1s0,.07.03.09c.02.02.05.02.08.02,1.72,0,3.44-.04,5.17-.04,1.77-.02,3.53-.03,5.3,0,1.24.02,2.49.05,3.73.11,2.77.13,4.1,1.72,4.07,4.5-.03,2.56-.29,5.15-.81,7.65-1.34,6.38-4.56,9.69-10.93,10.41-4.32.49-8.76.2-13.12-.11-4.09-.29-7.21-2.64-8.74-6.37-1.3-3.17-2.24-6.59-2.64-9.99-.57-4.88.93-6.3,5.82-6.39Z"/>
    <path class="cls-2" d="M70.17,4.54c-.12.31-.23.61-.35.92.12-.31.23-.61.35-.92Z"/>
    <path class="cls-4" d="M72.48,7.54c-.06-.76-.43-1.68-.13-2.25"/>
  </g>
</svg>